<?xml version="1.0" encoding="utf-8"?>
<!-- Generator: Adobe Illustrator 23.0.1, SVG Export Plug-In . SVG Version: 6.00 Build 0)  -->
<svg version="1.1" id="Layer_1" xmlns="http://www.w3.org/2000/svg" xmlns:xlink="http://www.w3.org/1999/xlink" x="0px" y="0px"
	 viewBox="0 0 189.83 49.47" style="enable-background:new 0 0 189.83 49.47;" xml:space="preserve">
<style type="text/css">
	.st0{fill:#F68C47;}
	.st1{fill:#1074BA;}
	.st2{fill:#16627C;}
	.st3{fill:#808285;}
</style>
<g>
	<g>
		<g>
			<g>
				<path class="st0" d="M18.5,30.17l-5.12,18.96l8.96,0.02l9.17-33.79c-0.09,0.05-0.21,0.09-0.3,0.14
					c-1.3,0.61-2.49,1.27-3.57,1.96C23.1,20.36,19.91,24.96,18.5,30.17z"/>
			</g>
			<path class="st1" d="M8.9,16.4C8.92,16.44,9.57,16.55,8.9,16.4L8.9,16.4z"/>
			<path class="st0" d="M53.76,9.19C53,9.4,52.19,9.6,51.34,9.86c-1.34,0.35-2.79,0.74-4.28,1.11c-0.67,0.18-1.34,0.35-2.03,0.53
				l-0.71,1.01l-5.78,7.88l-4.08,5.6l-2.23,1.27l-0.12,0.41h0.09l2.51-0.94l8.22-10.89l0.05-0.12H43l4.7,0.07
				c8.04,0.12,12.35,6.21,10.34,13.65c-2,7.44-9.51,13-17.55,12.86l-3.52-0.05c-0.76-0.02-1.45-0.44-1.8-1.11l-2.83-7.24l-1.73-1.21
				l-4.21,15.8c-0.07,0.32,0.16,0.64,0.51,0.67l11.68,0.16c12.23,0.21,24.62-8.38,27.68-19.69C68.96,19.65,63.45,11.19,53.76,9.19z"
				/>
		</g>
		<path class="st2" d="M59.54,7.37c-0.92,0.39-2.86,0.99-5.34,1.68c-0.14,0.05-0.3,0.09-0.44,0.14C53,9.4,52.19,9.6,51.34,9.86
			c-1.34,0.35-2.79,0.71-4.28,1.11c-0.67,0.18-0.07,0.16-0.76,0.35l-0.74,1.01L43,15.71l-0.07,0.12l-8.22,10.89l-2.51,0.94
			l-0.14,0.05l4.45-14.1c-0.21,0.05-0.41,0.09-0.64,0.16c-0.78,0.18-1.59,0.39-2.33,0.55c-2.19,0.53-4.12,0.99-5.67,1.34
			c-1.11,0.25-1.98,0.46-2.58,0.58c-1.08,0.23-2.37,0.39-3.73,0.48c-4.93,0.37-10.92-0.05-12.64-0.32c0,0,0,0-0.02,0L0,13.27
			l1.66-0.62l6.82,1.06l-0.55-1.13L6.91,10.5L2.19,0.78c0,0,1.73-0.78,2.56-0.78c0.55,0,5,3.82,8.15,6.38
			c1.5,1.22,2.67,2.14,3.04,2.23c0.69,0.16,3.5,0.35,5.41,0.44c1.08,0.05,1.87,0.09,1.87,0.09s3.34-0.98,7.07-2.04l-8.18-2.93
			l-0.39-0.18l2.33-0.97L42.06,3.8c1.27-0.37,2.26-0.62,3.02-0.85c3.55-0.99,2.42-0.64,4.03-0.99c3.94-0.88,10.11-2.42,12.94-1.27
			l-1.29,0.44l-0.02,0.99l2.28-0.78c3.16-0.37,3.41,0.97,3.41,0.97C67.07,4.17,63.78,5.6,59.54,7.37z"/>
	</g>
	<g>
		<g>
			<g>
				<path class="st2" d="M81.42,1.53c-0.49,0-0.89,0.01-1.21,0.04c-0.32,0.03-0.58,0.11-0.79,0.26c-0.21,0.15-0.38,0.38-0.52,0.69
					c-0.14,0.31-0.27,0.76-0.4,1.32l-0.56-0.06c0-0.03,0-0.11,0.01-0.25c0-0.13,0.01-0.29,0.02-0.48c0.01-0.19,0.02-0.39,0.03-0.62
					c0.01-0.22,0.02-0.44,0.04-0.66c0.01-0.21,0.03-0.41,0.04-0.59c0.01-0.18,0.03-0.33,0.04-0.43c0.01-0.11,0.07-0.17,0.2-0.17
					c0.68,0.01,1.33,0.03,1.95,0.03c0.62,0.01,1.19,0.01,1.72,0.01h3.74c0.52,0,1.1,0,1.73-0.01c0.63-0.01,1.28-0.02,1.96-0.03
					c0.1,0,0.16,0.06,0.18,0.17c0.01,0.11,0.03,0.25,0.04,0.43c0.01,0.18,0.02,0.38,0.03,0.59c0.01,0.21,0.02,0.43,0.03,0.66
					c0.01,0.22,0.01,0.43,0.02,0.62c0,0.19,0.01,0.35,0.01,0.48c0,0.14,0.01,0.22,0.01,0.25l-0.56,0.06
					c-0.13-0.57-0.26-1.01-0.39-1.32c-0.13-0.31-0.3-0.54-0.5-0.69c-0.2-0.14-0.46-0.23-0.77-0.26c-0.31-0.03-0.71-0.04-1.21-0.04
					h-1.44v11.79c0,0.18-0.09,0.28-0.27,0.31c-0.13,0.02-0.27,0.04-0.42,0.06c-0.15,0.02-0.3,0.03-0.45,0.05
					c-0.15,0.01-0.28,0.02-0.4,0.02c-0.12,0-0.21,0.01-0.28,0.01c-0.18,0-0.27-0.09-0.27-0.28V1.53H81.42z"/>
				<path class="st2" d="M94.46,6.89c0.57-0.04,1.08-0.12,1.53-0.25c0.44-0.13,0.81-0.31,1.11-0.56c0.29-0.24,0.52-0.55,0.67-0.92
					c0.15-0.37,0.23-0.83,0.23-1.36c0-0.44-0.08-0.83-0.25-1.16c-0.16-0.33-0.39-0.6-0.68-0.81c-0.29-0.21-0.64-0.37-1.03-0.48
					c-0.4-0.1-0.82-0.16-1.28-0.16c-0.3,0-0.52,0.02-0.67,0.07s-0.22,0.19-0.22,0.41v11.63c0,0.18-0.09,0.28-0.27,0.31
					c-0.13,0.02-0.27,0.04-0.42,0.06c-0.15,0.02-0.3,0.03-0.45,0.05c-0.14,0.01-0.28,0.02-0.4,0.02c-0.12,0-0.21,0.01-0.27,0.01
					c-0.18,0-0.27-0.09-0.27-0.28V2.23c0-0.37-0.08-0.62-0.25-0.75c-0.17-0.12-0.38-0.18-0.64-0.18c-0.15,0-0.31,0.01-0.49,0.03
					l-0.07-0.62c0.75-0.13,1.52-0.23,2.33-0.32c0.8-0.08,1.62-0.13,2.46-0.13c0.36,0,0.74,0.02,1.13,0.05
					c0.4,0.03,0.78,0.09,1.17,0.17c0.38,0.08,0.74,0.2,1.09,0.34c0.34,0.14,0.64,0.34,0.9,0.57c0.26,0.24,0.46,0.52,0.62,0.85
					c0.15,0.33,0.23,0.73,0.23,1.18c0,0.49-0.07,0.91-0.22,1.28c-0.15,0.37-0.35,0.7-0.61,0.98c-0.26,0.28-0.56,0.53-0.9,0.73
					c-0.34,0.2-0.71,0.37-1.11,0.52v0.07c0.19,0.04,0.39,0.1,0.61,0.17c0.22,0.08,0.43,0.19,0.63,0.34c0.21,0.14,0.4,0.33,0.57,0.56
					c0.18,0.22,0.32,0.5,0.42,0.83l0.83,2.57c0.11,0.35,0.21,0.63,0.31,0.84c0.09,0.21,0.19,0.37,0.3,0.48
					c0.1,0.11,0.22,0.18,0.36,0.21c0.14,0.03,0.3,0.05,0.5,0.05l0.03,0.58c-0.14,0.03-0.3,0.06-0.47,0.08
					c-0.17,0.03-0.33,0.05-0.5,0.06c-0.16,0.01-0.31,0.03-0.44,0.04c-0.13,0.01-0.23,0.02-0.3,0.02c-0.24,0-0.45-0.03-0.64-0.08
					c-0.19-0.06-0.35-0.15-0.5-0.29c-0.15-0.14-0.28-0.32-0.4-0.55c-0.12-0.23-0.22-0.51-0.32-0.86l-0.8-2.74
					c-0.11-0.39-0.25-0.7-0.4-0.93c-0.16-0.23-0.35-0.41-0.59-0.53c-0.24-0.12-0.52-0.21-0.85-0.25c-0.33-0.04-0.74-0.07-1.21-0.08
					L94.46,6.89z"/>
				<path class="st2" d="M105.37,8.92l-1.73,4.65c-0.03,0.08-0.1,0.13-0.2,0.15c-0.14,0.01-0.29,0.03-0.46,0.03
					c-0.17,0.01-0.37,0.01-0.58,0.01c-0.12,0-0.18-0.04-0.18-0.11c0-0.02,0-0.04,0.01-0.06l5.14-12.32l-0.24-0.65
					c-0.02-0.06-0.02-0.1-0.02-0.12c0-0.11,0.07-0.18,0.21-0.2c0.12-0.02,0.26-0.04,0.42-0.06c0.16-0.02,0.32-0.04,0.47-0.05
					c0.15-0.01,0.29-0.03,0.42-0.03c0.13-0.01,0.22-0.01,0.28-0.01c0.15,0,0.26,0.09,0.33,0.26l5,12.88
					c0.02,0.06,0.03,0.1,0.03,0.12c0,0.13-0.07,0.2-0.22,0.22c-0.13,0.02-0.29,0.04-0.45,0.06c-0.17,0.02-0.33,0.03-0.49,0.05
					c-0.16,0.01-0.31,0.02-0.44,0.02c-0.14,0-0.23,0.01-0.29,0.01c-0.13,0-0.21-0.06-0.26-0.17l-1.83-4.76L105.37,8.92z
					 M105.73,7.96h4.21L107.8,2.4L105.73,7.96z"/>
				<path class="st2" d="M123.48,0.96c0.05-0.16,0.18-0.28,0.37-0.34c0.1-0.03,0.22-0.05,0.34-0.07c0.12-0.01,0.24-0.03,0.35-0.04
					c0.11-0.01,0.21-0.02,0.31-0.02c0.09,0,0.17-0.01,0.22-0.01c0.08,0,0.14,0.01,0.16,0.04c0.03,0.03,0.04,0.06,0.04,0.1
					c0,0.03-0.02,0.09-0.06,0.19l-5.33,12.73c-0.06,0.13-0.12,0.19-0.19,0.2c-0.04,0.01-0.1,0.02-0.18,0.02
					c-0.09,0.01-0.18,0.01-0.27,0.02s-0.18,0.01-0.27,0.01c-0.09,0-0.14,0-0.17,0c-0.05,0-0.09-0.01-0.13-0.03
					c-0.04-0.02-0.08-0.07-0.11-0.15l-4.42-11.38c-0.14-0.35-0.29-0.59-0.48-0.71c-0.18-0.12-0.4-0.18-0.63-0.18
					c-0.07,0-0.15,0-0.23,0.01c-0.08,0.01-0.16,0.02-0.25,0.03l-0.07-0.62c0.33-0.07,0.66-0.12,0.99-0.17
					c0.33-0.05,0.63-0.09,0.9-0.12c0.27-0.03,0.5-0.06,0.69-0.08c0.19-0.02,0.31-0.03,0.36-0.03c0.11,0,0.2,0.04,0.25,0.11
					c0.05,0.07,0.1,0.17,0.16,0.3l4,10.44h0.04L123.48,0.96z"/>
				<path class="st2" d="M129.57,11.88c0,0.18,0.01,0.32,0.02,0.42c0.01,0.1,0.04,0.18,0.09,0.24c0.05,0.06,0.13,0.09,0.24,0.11
					c0.11,0.02,0.27,0.02,0.47,0.02h1.45c0.6,0,1.08-0.01,1.46-0.04c0.37-0.03,0.69-0.11,0.95-0.26c0.26-0.15,0.49-0.38,0.69-0.7
					s0.42-0.77,0.67-1.35l0.56,0.12c0,0.05-0.02,0.19-0.05,0.4c-0.03,0.22-0.08,0.47-0.13,0.76c-0.05,0.29-0.11,0.58-0.18,0.88
					c-0.07,0.3-0.14,0.56-0.2,0.79c-0.1,0.25-0.28,0.38-0.55,0.38c-0.28,0-0.61,0-0.99,0c-0.38,0-0.81-0.01-1.27-0.01
					c-0.47,0-0.97-0.01-1.5-0.01c-0.53,0-1.09-0.01-1.68-0.01h-1.86c-0.11,0-0.18-0.03-0.21-0.1c-0.04-0.06-0.06-0.13-0.06-0.18
					V2.56c0-0.38-0.09-0.63-0.26-0.76c-0.17-0.12-0.38-0.19-0.64-0.19c-0.16,0-0.32,0.01-0.48,0.03l-0.07-0.62
					c0.16-0.03,0.39-0.07,0.68-0.11c0.3-0.04,0.61-0.09,0.94-0.13c0.33-0.05,0.64-0.08,0.94-0.11c0.3-0.03,0.54-0.04,0.71-0.04h4.08
					c0.25,0,0.52,0,0.8-0.01c0.28,0,0.58-0.01,0.92-0.02c0.12,0,0.19,0.06,0.2,0.17c0.01,0.11,0.02,0.24,0.03,0.42
					c0.01,0.17,0.02,0.36,0.03,0.56c0.01,0.2,0.02,0.41,0.03,0.62c0.01,0.21,0.02,0.4,0.03,0.58c0.01,0.18,0.01,0.33,0.02,0.46
					c0,0.13,0.01,0.21,0.01,0.24l-0.56,0.06c-0.13-0.53-0.26-0.94-0.39-1.23c-0.13-0.29-0.3-0.5-0.5-0.64
					c-0.2-0.14-0.46-0.21-0.77-0.24c-0.31-0.03-0.71-0.04-1.21-0.04h-1.97c-0.13,0-0.22,0-0.29,0.01c-0.06,0.01-0.11,0.03-0.14,0.06
					c-0.03,0.03-0.05,0.07-0.05,0.13c0,0.06-0.01,0.13-0.01,0.23v4.54c0.61-0.03,1.18-0.06,1.69-0.08c0.51-0.03,0.96-0.05,1.33-0.07
					c0.38-0.02,0.68-0.03,0.91-0.05c0.23-0.01,0.37-0.02,0.43-0.02c0.21,0,0.31,0.11,0.31,0.34c0,0.14-0.01,0.29-0.02,0.44
					c-0.01,0.15-0.03,0.31-0.06,0.48l-4.6-0.16V11.88z"/>
				<path class="st2" d="M140.51,11.88c0,0.18,0.01,0.32,0.02,0.42c0.01,0.1,0.04,0.18,0.09,0.24c0.05,0.06,0.13,0.09,0.24,0.11
					c0.11,0.02,0.27,0.02,0.47,0.02h1.11c0.6,0,1.09-0.02,1.46-0.05c0.38-0.03,0.7-0.12,0.96-0.28c0.26-0.16,0.49-0.4,0.7-0.72
					c0.2-0.32,0.43-0.77,0.67-1.36l0.56,0.12c0,0.05-0.02,0.19-0.06,0.42c-0.04,0.22-0.08,0.48-0.14,0.77
					c-0.06,0.29-0.12,0.59-0.19,0.9c-0.07,0.31-0.14,0.57-0.2,0.8c-0.1,0.25-0.28,0.38-0.55,0.38c-0.56-0.01-1.26-0.01-2.09-0.02
					c-0.83-0.01-1.84-0.01-3.01-0.01h-1.86c-0.11,0-0.18-0.03-0.21-0.1c-0.04-0.06-0.06-0.13-0.06-0.18V2.38
					c0-0.21-0.02-0.38-0.06-0.51c-0.04-0.13-0.1-0.23-0.18-0.31c-0.08-0.07-0.17-0.13-0.28-0.16c-0.11-0.03-0.23-0.05-0.36-0.05
					c-0.16,0-0.33,0.01-0.49,0.03l-0.07-0.62c0.4-0.07,0.79-0.14,1.15-0.19c0.36-0.05,0.69-0.09,0.97-0.12
					c0.28-0.03,0.51-0.05,0.7-0.07c0.19-0.01,0.31-0.02,0.36-0.02c0.24,0,0.36,0.12,0.36,0.36V11.88z"/>
				<path class="st2" d="M150.83,11.88c0,0.18,0.01,0.32,0.02,0.42c0.01,0.1,0.04,0.18,0.09,0.24c0.05,0.06,0.13,0.09,0.24,0.11
					c0.11,0.02,0.27,0.02,0.47,0.02h1.11c0.6,0,1.09-0.02,1.46-0.05c0.38-0.03,0.7-0.12,0.96-0.28c0.26-0.16,0.49-0.4,0.7-0.72
					c0.2-0.32,0.43-0.77,0.67-1.36l0.56,0.12c0,0.05-0.02,0.19-0.06,0.42c-0.04,0.22-0.08,0.48-0.14,0.77
					c-0.06,0.29-0.12,0.59-0.19,0.9c-0.07,0.31-0.14,0.57-0.2,0.8c-0.1,0.25-0.28,0.38-0.55,0.38c-0.56-0.01-1.26-0.01-2.09-0.02
					c-0.83-0.01-1.84-0.01-3.01-0.01h-1.86c-0.11,0-0.18-0.03-0.21-0.1c-0.04-0.06-0.06-0.13-0.06-0.18V2.38
					c0-0.21-0.02-0.38-0.06-0.51c-0.04-0.13-0.1-0.23-0.18-0.31c-0.08-0.07-0.17-0.13-0.28-0.16c-0.11-0.03-0.23-0.05-0.36-0.05
					c-0.16,0-0.33,0.01-0.49,0.03l-0.07-0.62c0.4-0.07,0.79-0.14,1.15-0.19c0.36-0.05,0.69-0.09,0.97-0.12
					c0.28-0.03,0.51-0.05,0.7-0.07c0.19-0.01,0.31-0.02,0.36-0.02c0.24,0,0.36,0.12,0.36,0.36V11.88z"/>
				<path class="st2" d="M161.14,11.88c0,0.18,0.01,0.32,0.02,0.42c0.01,0.1,0.04,0.18,0.09,0.24c0.05,0.06,0.13,0.09,0.24,0.11
					c0.11,0.02,0.27,0.02,0.47,0.02h1.45c0.6,0,1.08-0.01,1.46-0.04c0.37-0.03,0.69-0.11,0.95-0.26c0.26-0.15,0.49-0.38,0.69-0.7
					s0.42-0.77,0.67-1.35l0.56,0.12c0,0.05-0.02,0.19-0.05,0.4c-0.03,0.22-0.08,0.47-0.13,0.76c-0.05,0.29-0.11,0.58-0.18,0.88
					c-0.07,0.3-0.14,0.56-0.2,0.79c-0.1,0.25-0.28,0.38-0.55,0.38c-0.28,0-0.61,0-0.99,0c-0.38,0-0.81-0.01-1.27-0.01
					c-0.47,0-0.97-0.01-1.5-0.01c-0.53,0-1.09-0.01-1.68-0.01h-1.86c-0.11,0-0.18-0.03-0.21-0.1c-0.04-0.06-0.06-0.13-0.06-0.18
					V2.56c0-0.38-0.09-0.63-0.26-0.76c-0.17-0.12-0.38-0.19-0.64-0.19c-0.16,0-0.32,0.01-0.48,0.03l-0.07-0.62
					C157.77,1,158,0.97,158.3,0.92c0.3-0.04,0.61-0.09,0.94-0.13c0.33-0.05,0.64-0.08,0.94-0.11c0.3-0.03,0.54-0.04,0.71-0.04h4.08
					c0.25,0,0.52,0,0.8-0.01c0.28,0,0.58-0.01,0.92-0.02c0.12,0,0.19,0.06,0.2,0.17c0.01,0.11,0.02,0.24,0.03,0.42
					c0.01,0.17,0.02,0.36,0.03,0.56c0.01,0.2,0.02,0.41,0.03,0.62c0.01,0.21,0.02,0.4,0.03,0.58c0.01,0.18,0.01,0.33,0.02,0.46
					c0,0.13,0.01,0.21,0.01,0.24l-0.56,0.06c-0.13-0.53-0.26-0.94-0.39-1.23c-0.13-0.29-0.3-0.5-0.5-0.64
					c-0.2-0.14-0.46-0.21-0.77-0.24c-0.31-0.03-0.71-0.04-1.21-0.04h-1.97c-0.13,0-0.22,0-0.29,0.01c-0.06,0.01-0.11,0.03-0.14,0.06
					c-0.03,0.03-0.05,0.07-0.05,0.13c0,0.06-0.01,0.13-0.01,0.23v4.54c0.61-0.03,1.18-0.06,1.69-0.08c0.51-0.03,0.96-0.05,1.33-0.07
					c0.38-0.02,0.68-0.03,0.91-0.05c0.23-0.01,0.37-0.02,0.43-0.02c0.21,0,0.31,0.11,0.31,0.34c0,0.14-0.01,0.29-0.02,0.44
					c-0.01,0.15-0.03,0.31-0.06,0.48l-4.6-0.16V11.88z"/>
				<path class="st2" d="M172.69,6.89c0.57-0.04,1.08-0.12,1.53-0.25c0.44-0.13,0.81-0.31,1.11-0.56c0.29-0.24,0.52-0.55,0.67-0.92
					c0.15-0.37,0.23-0.83,0.23-1.36c0-0.44-0.08-0.83-0.25-1.16s-0.39-0.6-0.68-0.81c-0.29-0.21-0.64-0.37-1.03-0.48
					c-0.4-0.1-0.82-0.16-1.28-0.16c-0.3,0-0.52,0.02-0.67,0.07c-0.15,0.05-0.22,0.19-0.22,0.41v11.63c0,0.18-0.09,0.28-0.27,0.31
					c-0.13,0.02-0.27,0.04-0.42,0.06c-0.15,0.02-0.3,0.03-0.45,0.05c-0.14,0.01-0.28,0.02-0.4,0.02c-0.12,0-0.21,0.01-0.27,0.01
					c-0.18,0-0.27-0.09-0.27-0.28V2.23c0-0.37-0.08-0.62-0.25-0.75c-0.17-0.12-0.38-0.18-0.64-0.18c-0.15,0-0.31,0.01-0.49,0.03
					l-0.07-0.62c0.75-0.13,1.52-0.23,2.33-0.32c0.8-0.08,1.62-0.13,2.46-0.13c0.36,0,0.74,0.02,1.13,0.05
					c0.4,0.03,0.78,0.09,1.17,0.17c0.38,0.08,0.74,0.2,1.09,0.34c0.34,0.14,0.64,0.34,0.9,0.57c0.26,0.24,0.46,0.52,0.62,0.85
					c0.15,0.33,0.23,0.73,0.23,1.18c0,0.49-0.07,0.91-0.22,1.28c-0.15,0.37-0.35,0.7-0.61,0.98c-0.26,0.28-0.56,0.53-0.9,0.73
					c-0.34,0.2-0.71,0.37-1.11,0.52v0.07c0.19,0.04,0.39,0.1,0.61,0.17c0.22,0.08,0.43,0.19,0.63,0.34c0.21,0.14,0.4,0.33,0.57,0.56
					c0.18,0.22,0.32,0.5,0.42,0.83l0.83,2.57c0.11,0.35,0.21,0.63,0.31,0.84c0.09,0.21,0.19,0.37,0.3,0.48
					c0.1,0.11,0.22,0.18,0.36,0.21c0.14,0.03,0.3,0.05,0.5,0.05l0.03,0.58c-0.14,0.03-0.3,0.06-0.47,0.08
					c-0.17,0.03-0.33,0.05-0.5,0.06c-0.16,0.01-0.31,0.03-0.44,0.04c-0.13,0.01-0.23,0.02-0.3,0.02c-0.24,0-0.45-0.03-0.64-0.08
					c-0.19-0.06-0.35-0.15-0.5-0.29c-0.15-0.14-0.28-0.32-0.4-0.55c-0.12-0.23-0.22-0.51-0.32-0.86l-0.8-2.74
					c-0.11-0.39-0.25-0.7-0.4-0.93c-0.16-0.23-0.35-0.41-0.59-0.53c-0.24-0.12-0.52-0.21-0.85-0.25c-0.33-0.04-0.74-0.07-1.21-0.08
					L172.69,6.89z"/>
				<path class="st2" d="M188.42,3.67c-0.07-0.41-0.2-0.76-0.36-1.06c-0.17-0.3-0.38-0.54-0.62-0.73c-0.25-0.2-0.53-0.34-0.84-0.43
					c-0.31-0.09-0.64-0.14-1-0.14c-0.35,0-0.69,0.04-1.01,0.13c-0.32,0.09-0.61,0.22-0.85,0.41s-0.44,0.43-0.59,0.72
					c-0.15,0.29-0.22,0.64-0.22,1.04c0,0.36,0.09,0.67,0.26,0.93s0.4,0.48,0.69,0.67c0.29,0.19,0.62,0.36,0.99,0.51
					c0.37,0.15,0.76,0.3,1.17,0.45c0.45,0.17,0.9,0.36,1.35,0.56c0.45,0.2,0.85,0.44,1.21,0.72c0.35,0.28,0.64,0.63,0.86,1.03
					c0.22,0.4,0.33,0.9,0.33,1.49c0,0.52-0.07,0.97-0.22,1.37c-0.14,0.4-0.35,0.74-0.61,1.04c-0.26,0.29-0.56,0.54-0.9,0.75
					c-0.34,0.2-0.71,0.36-1.11,0.49c-0.4,0.12-0.81,0.21-1.24,0.26c-0.43,0.05-0.85,0.08-1.27,0.08c-0.5,0-1-0.03-1.5-0.09
					c-0.5-0.06-0.99-0.15-1.49-0.26c-0.07-0.01-0.12-0.05-0.16-0.1c-0.04-0.05-0.07-0.1-0.07-0.15c-0.01-0.16-0.03-0.39-0.04-0.69
					c-0.02-0.3-0.03-0.61-0.04-0.93c-0.01-0.31-0.02-0.6-0.03-0.85c-0.01-0.25-0.01-0.4-0.01-0.45l0.56-0.06
					c0.05,0.45,0.17,0.84,0.35,1.17c0.18,0.33,0.42,0.6,0.69,0.81c0.28,0.21,0.6,0.37,0.97,0.47s0.75,0.15,1.17,0.15
					c0.37,0,0.74-0.04,1.09-0.13c0.35-0.09,0.66-0.22,0.94-0.42c0.27-0.19,0.49-0.43,0.66-0.73c0.16-0.3,0.25-0.66,0.25-1.09
					c0-0.35-0.09-0.65-0.26-0.9c-0.17-0.25-0.4-0.47-0.69-0.66c-0.29-0.19-0.62-0.36-0.99-0.51c-0.37-0.15-0.75-0.3-1.15-0.46
					c-0.45-0.18-0.9-0.37-1.35-0.58c-0.45-0.21-0.85-0.45-1.2-0.75c-0.36-0.29-0.64-0.64-0.86-1.06c-0.22-0.42-0.33-0.93-0.33-1.53
					c0-0.73,0.14-1.35,0.43-1.84c0.29-0.49,0.67-0.89,1.13-1.19c0.47-0.3,1-0.51,1.59-0.64c0.59-0.13,1.2-0.19,1.82-0.19
					c0.41,0,0.86,0.03,1.35,0.1c0.49,0.06,0.94,0.15,1.37,0.25c0.07,0.01,0.12,0.05,0.16,0.1c0.04,0.05,0.07,0.1,0.07,0.15
					c0.01,0.16,0.03,0.38,0.04,0.66c0.01,0.28,0.03,0.56,0.05,0.85c0.01,0.29,0.03,0.55,0.03,0.78c0.01,0.23,0.01,0.37,0.01,0.42
					L188.42,3.67z"/>
			</g>
		</g>
		<g>
			<path class="st3" d="M83.61,39.26v0.79h-2.37v6.95h-0.86v-6.95H78v-0.79H83.61z"/>
			<path class="st3" d="M84.12,46.99v-5.16h0.55l0.19,0.98h0.01c0.42-0.74,0.96-1.11,1.62-1.11c0.25,0,0.45,0.04,0.63,0.13v0.85
				c-0.23-0.12-0.45-0.18-0.69-0.18c-0.4,0-0.74,0.18-1.04,0.54c-0.3,0.35-0.45,0.82-0.45,1.39v2.57H84.12z"/>
			<path class="st3" d="M88.54,46.35c-0.47-0.53-0.71-1.17-0.71-1.93s0.24-1.41,0.71-1.92c0.48-0.53,1.09-0.79,1.81-0.79
				c0.83,0,1.54,0.42,1.97,0.97h0.03l0.15-0.84h0.55v5.16H92.5l-0.15-0.84h-0.03c-0.43,0.55-1.14,0.97-1.97,0.97
				C89.63,47.12,89.03,46.87,88.54,46.35z M91.72,45.83c0.35-0.35,0.53-0.79,0.53-1.32v-0.19c0-0.53-0.17-0.96-0.53-1.31
				c-0.36-0.35-0.79-0.54-1.29-0.54c-0.53,0-0.95,0.18-1.28,0.56c-0.33,0.38-0.49,0.84-0.49,1.39c0,0.55,0.16,1.01,0.49,1.39
				c0.33,0.38,0.75,0.56,1.28,0.56C90.94,46.36,91.37,46.19,91.72,45.83z"/>
			<path class="st3" d="M98.06,41.84h0.89l-2.18,5.21H96.3l-2.18-5.21h0.89l1.53,3.87L98.06,41.84z"/>
			<path class="st3" d="M103.78,42.49c0.44,0.53,0.6,1.27,0.48,2.22h-3.92c0.07,1.03,0.74,1.68,1.9,1.68c0.65,0,1.22-0.19,1.74-0.57
				v0.79c-0.47,0.34-1.06,0.52-1.76,0.52c-0.85,0-1.52-0.25-2-0.73c-0.48-0.49-0.73-1.15-0.73-1.97c0-0.8,0.23-1.45,0.68-1.96
				c0.45-0.51,1.06-0.76,1.83-0.76C102.76,41.71,103.35,41.97,103.78,42.49z M100.34,44.07h3.17c-0.01-1.06-0.61-1.68-1.52-1.68
				C101.02,42.39,100.39,43.1,100.34,44.07z"/>
			<path class="st3" d="M106.51,39.15v7.85h-0.83v-7.85H106.51z"/>
			<path class="st3" d="M115.68,42.98c1.12,0.13,1.8,0.84,1.8,1.89c0,1.33-0.87,2.13-2.29,2.13h-3.43v-7.74h3.02
				c1.52,0,2.33,0.69,2.33,1.93c0,0.92-0.59,1.57-1.43,1.76V42.98z M112.62,40.03v2.61h2.16c0.42,0,0.77-0.14,1.05-0.41
				c0.29-0.28,0.43-0.6,0.43-0.98c0-0.76-0.46-1.23-1.48-1.23H112.62z M115.16,46.22c0.98,0,1.45-0.53,1.45-1.4
				c0-0.4-0.15-0.73-0.44-1.02c-0.29-0.29-0.66-0.43-1.1-0.43h-2.46v2.85H115.16z"/>
			<path class="st3" d="M122.82,42.49c0.44,0.53,0.6,1.27,0.48,2.22h-3.92c0.07,1.03,0.74,1.68,1.9,1.68c0.65,0,1.22-0.19,1.74-0.57
				v0.79c-0.47,0.34-1.06,0.52-1.76,0.52c-0.85,0-1.52-0.25-2-0.73c-0.48-0.49-0.73-1.15-0.73-1.97c0-0.8,0.23-1.45,0.68-1.96
				c0.45-0.51,1.06-0.76,1.83-0.76C121.8,41.71,122.39,41.97,122.82,42.49z M119.38,44.07h3.17c-0.01-1.06-0.61-1.68-1.52-1.68
				C120.06,42.39,119.42,43.1,119.38,44.07z"/>
			<path class="st3" d="M127.87,41.84h0.89l-1.99,4.74l-1.15,2.89h-0.89l1.22-2.79l-2.03-4.84h0.89l1.53,3.93L127.87,41.84z"/>
			<path class="st3" d="M131.92,41.71c0.77,0,1.42,0.26,1.92,0.79c0.51,0.53,0.76,1.16,0.76,1.92s-0.26,1.4-0.76,1.92
				c-0.5,0.53-1.15,0.79-1.92,0.79c-0.77,0-1.42-0.26-1.92-0.79c-0.51-0.53-0.75-1.16-0.75-1.92
				C129.21,42.95,130.39,41.69,131.92,41.71z M133.24,45.79c0.35-0.38,0.53-0.83,0.53-1.38c0-0.55-0.17-1-0.53-1.38
				c-0.34-0.38-0.79-0.56-1.32-0.56c-0.54,0-0.98,0.18-1.33,0.56c-0.34,0.38-0.52,0.83-0.52,1.38c0,0.55,0.17,1,0.52,1.38
				c0.35,0.38,0.79,0.56,1.33,0.56C132.46,46.35,132.9,46.17,133.24,45.79z"/>
			<path class="st3" d="M140.56,43.85v3.15h-0.83v-3.13c0-0.94-0.4-1.41-1.2-1.41c-0.48,0-0.89,0.18-1.24,0.56
				c-0.34,0.37-0.52,0.84-0.52,1.41v2.57h-0.83v-5.16h0.55l0.19,0.98h0.01c0.43-0.65,1.11-1.11,1.97-1.11
				C139.93,41.71,140.56,42.59,140.56,43.85z"/>
			<path class="st3" d="M142.57,46.35c-0.47-0.53-0.71-1.17-0.71-1.93s0.24-1.4,0.7-1.92c0.46-0.53,1.06-0.79,1.78-0.79
				c0.83,0,1.54,0.43,1.89,0.91h0.03l-0.02-0.82v-2.66h0.83v7.85h-0.55l-0.15-0.84h-0.03c-0.43,0.55-1.14,0.97-1.97,0.97
				C143.66,47.12,143.06,46.87,142.57,46.35z M145.75,45.83c0.35-0.35,0.53-0.79,0.53-1.32v-0.19c0-0.53-0.17-0.96-0.53-1.31
				c-0.36-0.35-0.79-0.54-1.29-0.54c-0.53,0-0.95,0.18-1.28,0.56c-0.33,0.38-0.49,0.84-0.49,1.39c0,0.55,0.16,1.01,0.49,1.39
				c0.33,0.38,0.75,0.56,1.28,0.56C144.97,46.36,145.4,46.19,145.75,45.83z"/>
			<path class="st3" d="M152.32,46.99v-7.74h2.19c2.98,0,4.25,1.66,4.25,3.87c0,2.21-1.25,3.87-4.25,3.87H152.32z M153.18,46.22
				h1.33c2.32,0,3.37-1.16,3.37-3.1c0-1.93-1.06-3.1-3.37-3.1h-1.33V46.22z"/>
			<path class="st3" d="M160.2,46.99v-5.16h0.55l0.19,0.98h0.01c0.42-0.74,0.96-1.11,1.62-1.11c0.25,0,0.45,0.04,0.63,0.13v0.85
				c-0.23-0.12-0.45-0.18-0.69-0.18c-0.4,0-0.74,0.18-1.04,0.54c-0.3,0.35-0.45,0.82-0.45,1.39v2.57H160.2z"/>
			<path class="st3" d="M168.2,42.49c0.44,0.53,0.6,1.27,0.48,2.22h-3.92c0.07,1.03,0.74,1.68,1.9,1.68c0.65,0,1.22-0.19,1.74-0.57
				v0.79c-0.47,0.34-1.06,0.52-1.76,0.52c-0.85,0-1.52-0.25-2-0.73c-0.48-0.49-0.73-1.15-0.73-1.97c0-0.8,0.23-1.45,0.68-1.96
				c0.45-0.51,1.06-0.76,1.83-0.76C167.18,41.71,167.77,41.97,168.2,42.49z M164.76,44.07h3.17c-0.01-1.06-0.61-1.68-1.52-1.68
				C165.43,42.39,164.8,43.1,164.76,44.07z"/>
			<path class="st3" d="M170.42,46.35c-0.47-0.53-0.71-1.17-0.71-1.93s0.24-1.41,0.71-1.92c0.48-0.53,1.09-0.79,1.81-0.79
				c0.83,0,1.54,0.42,1.97,0.97h0.03l0.15-0.84h0.55v5.16h-0.55l-0.15-0.84h-0.03c-0.43,0.55-1.14,0.97-1.97,0.97
				C171.51,47.12,170.91,46.87,170.42,46.35z M173.6,45.83c0.35-0.35,0.53-0.79,0.53-1.32v-0.19c0-0.53-0.17-0.96-0.53-1.31
				c-0.36-0.35-0.79-0.54-1.29-0.54c-0.53,0-0.95,0.18-1.28,0.56c-0.33,0.38-0.49,0.84-0.49,1.39c0,0.55,0.16,1.01,0.49,1.39
				c0.33,0.38,0.75,0.56,1.28,0.56C172.82,46.36,173.25,46.19,173.6,45.83z"/>
			<path class="st3" d="M184.4,42.32c0.32,0.4,0.48,0.91,0.48,1.53v3.15h-0.83v-3.13c0-0.94-0.4-1.41-1.2-1.41
				c-0.44,0-0.83,0.18-1.16,0.56s-0.49,0.84-0.49,1.41v2.57h-0.83v-3.13c0-0.94-0.4-1.41-1.2-1.41c-0.44,0-0.83,0.18-1.16,0.56
				s-0.49,0.84-0.49,1.41v2.57h-0.83v-5.16h0.55l0.19,0.98h0.01c0.49-0.74,1.12-1.11,1.88-1.11c0.89,0,1.47,0.46,1.73,1.19
				c0.52-0.79,1.17-1.19,1.96-1.19C183.62,41.71,184.09,41.91,184.4,42.32z"/>
			<path class="st3" d="M186.34,46.79v-0.86c0.45,0.31,0.96,0.47,1.52,0.47c0.63,0,1.1-0.28,1.1-0.81c0-0.26-0.09-0.45-0.33-0.59
				c-0.25-0.14-0.35-0.19-0.73-0.32c-0.03,0-0.07-0.01-0.09-0.03l-0.45-0.15c-0.1-0.04-0.24-0.11-0.4-0.19
				c-0.44-0.24-0.61-0.54-0.66-1.13c0-0.96,0.75-1.47,1.77-1.47c0.46,0,0.9,0.09,1.3,0.27v0.79c-0.39-0.24-0.81-0.35-1.27-0.35
				c-0.55,0-0.95,0.23-0.95,0.7c0,0.21,0.1,0.38,0.18,0.47c0.05,0.04,0.13,0.1,0.25,0.15c0.25,0.12,0.29,0.12,0.63,0.25
				c0.43,0.14,0.57,0.18,0.9,0.37c0.47,0.23,0.66,0.57,0.71,1.16c0,1.15-0.99,1.61-2.01,1.61
				C187.27,47.12,186.78,47.02,186.34,46.79z"/>
		</g>
		<g>
			<g>
				<path class="st2" d="M79.97,32.33c-0.21,0-0.31-0.11-0.31-0.32V19.27c0-0.44-0.1-0.73-0.28-0.87c-0.19-0.14-0.43-0.21-0.74-0.21
					c-0.17,0-0.36,0.01-0.57,0.04L78,17.53c0.96-0.16,1.94-0.29,2.92-0.39c0.98-0.1,1.97-0.15,2.96-0.15c0.83,0,1.63,0.05,2.42,0.14
					c0.79,0.09,1.53,0.25,2.22,0.48c0.69,0.22,1.33,0.52,1.9,0.89c0.58,0.37,1.07,0.83,1.49,1.38c0.42,0.55,0.74,1.2,0.97,1.95
					c0.23,0.75,0.35,1.61,0.35,2.59c0,1.3-0.23,2.45-0.69,3.47s-1.1,1.86-1.92,2.56c-0.82,0.7-1.8,1.23-2.93,1.59
					c-1.13,0.36-2.36,0.54-3.7,0.54c-0.39,0-0.73-0.01-1.03-0.04c-0.3-0.03-0.59-0.05-0.88-0.08c-0.29-0.03-0.6-0.06-0.94-0.08
					C80.82,32.34,80.43,32.33,79.97,32.33z M82.06,31.3c0.33,0.08,0.66,0.13,0.99,0.16c0.34,0.03,0.68,0.05,1.05,0.05
					c1.03,0,1.95-0.16,2.76-0.47c0.81-0.31,1.49-0.76,2.04-1.35c0.55-0.59,0.97-1.29,1.26-2.13c0.29-0.83,0.43-1.77,0.43-2.81
					c0-0.99-0.15-1.89-0.44-2.71c-0.3-0.82-0.73-1.52-1.3-2.11c-0.57-0.59-1.26-1.05-2.09-1.37c-0.83-0.32-1.77-0.48-2.83-0.48
					h-0.66c-0.39,0-0.69,0.03-0.9,0.1c-0.21,0.07-0.32,0.24-0.32,0.52V31.3z"/>
				<path class="st2" d="M104.06,24.59c0.66-0.04,1.25-0.14,1.75-0.28c0.51-0.15,0.93-0.36,1.27-0.64c0.34-0.28,0.6-0.63,0.77-1.06
					c0.18-0.43,0.26-0.95,0.26-1.56c0-0.51-0.1-0.95-0.28-1.33c-0.19-0.38-0.45-0.69-0.79-0.93c-0.34-0.25-0.73-0.43-1.19-0.55
					c-0.46-0.12-0.95-0.18-1.47-0.18c-0.34,0-0.6,0.03-0.77,0.08c-0.17,0.06-0.26,0.21-0.26,0.47v13.38c0,0.21-0.1,0.33-0.31,0.36
					c-0.15,0.03-0.31,0.05-0.48,0.07c-0.18,0.02-0.35,0.04-0.52,0.05c-0.17,0.01-0.32,0.02-0.46,0.03c-0.14,0-0.25,0.01-0.32,0.01
					c-0.21,0-0.31-0.11-0.31-0.32V19.23c0-0.43-0.1-0.72-0.28-0.86c-0.19-0.14-0.43-0.21-0.74-0.21c-0.17,0-0.36,0.01-0.57,0.04
					l-0.08-0.71c0.86-0.15,1.75-0.27,2.68-0.37c0.92-0.1,1.87-0.15,2.83-0.15c0.41,0,0.85,0.02,1.3,0.05s0.9,0.1,1.34,0.19
					c0.44,0.1,0.86,0.23,1.25,0.39c0.4,0.17,0.74,0.39,1.04,0.66c0.3,0.27,0.53,0.6,0.71,0.98c0.18,0.38,0.26,0.84,0.26,1.36
					c0,0.56-0.08,1.05-0.25,1.48c-0.17,0.43-0.4,0.8-0.7,1.13c-0.3,0.33-0.64,0.61-1.04,0.84c-0.4,0.23-0.82,0.43-1.28,0.59v0.08
					c0.21,0.04,0.45,0.11,0.7,0.2c0.25,0.09,0.49,0.22,0.73,0.39c0.24,0.17,0.46,0.38,0.66,0.64c0.2,0.26,0.36,0.58,0.48,0.95
					l0.96,2.96c0.13,0.4,0.25,0.73,0.35,0.97c0.11,0.24,0.22,0.42,0.34,0.55c0.12,0.13,0.26,0.21,0.41,0.25
					c0.15,0.04,0.35,0.06,0.58,0.06l0.04,0.67c-0.16,0.03-0.34,0.07-0.54,0.1c-0.19,0.03-0.39,0.05-0.57,0.07
					c-0.19,0.02-0.36,0.03-0.51,0.05c-0.15,0.01-0.26,0.02-0.34,0.02c-0.28,0-0.52-0.03-0.74-0.1c-0.22-0.06-0.41-0.18-0.58-0.33
					c-0.17-0.16-0.32-0.37-0.46-0.63c-0.13-0.26-0.26-0.59-0.37-0.99l-0.92-3.15c-0.13-0.45-0.28-0.8-0.46-1.07
					c-0.18-0.27-0.41-0.47-0.68-0.61s-0.6-0.24-0.98-0.28c-0.38-0.05-0.85-0.08-1.39-0.1L104.06,24.59z"/>
				<path class="st2" d="M122.01,30.33c0,0.21,0.01,0.37,0.02,0.48c0.01,0.12,0.05,0.21,0.1,0.27s0.15,0.11,0.28,0.12
					c0.13,0.02,0.31,0.03,0.54,0.03h1.66c0.69,0,1.25-0.01,1.68-0.05c0.43-0.03,0.8-0.13,1.1-0.3c0.3-0.17,0.57-0.43,0.79-0.8
					c0.23-0.37,0.48-0.88,0.77-1.55l0.65,0.14c0,0.06-0.02,0.22-0.06,0.46c-0.04,0.25-0.09,0.54-0.15,0.87
					c-0.06,0.33-0.13,0.67-0.21,1.01c-0.08,0.34-0.16,0.65-0.23,0.9c-0.11,0.29-0.32,0.44-0.63,0.44c-0.32,0-0.7,0-1.14-0.01
					c-0.44,0-0.93-0.01-1.46-0.01c-0.54,0-1.11-0.01-1.73-0.01c-0.62,0-1.26-0.01-1.93-0.01h-2.14c-0.12,0-0.2-0.04-0.25-0.11
					c-0.04-0.07-0.06-0.14-0.06-0.21v-12.4c0-0.44-0.1-0.73-0.3-0.87c-0.2-0.14-0.44-0.21-0.74-0.21c-0.18,0-0.37,0.01-0.56,0.04
					l-0.08-0.71c0.18-0.03,0.44-0.08,0.79-0.13c0.34-0.05,0.7-0.1,1.08-0.16c0.37-0.05,0.74-0.09,1.08-0.13
					c0.35-0.03,0.62-0.05,0.82-0.05h4.7c0.29,0,0.6,0,0.92-0.01c0.32,0,0.67-0.01,1.06-0.02c0.14,0,0.22,0.07,0.23,0.19
					c0.01,0.12,0.02,0.28,0.03,0.48s0.02,0.41,0.03,0.65s0.02,0.47,0.03,0.71c0.01,0.24,0.02,0.46,0.03,0.67
					c0.01,0.21,0.02,0.38,0.02,0.53c0,0.15,0.01,0.24,0.01,0.27l-0.64,0.07c-0.15-0.61-0.3-1.08-0.45-1.42
					c-0.15-0.33-0.34-0.58-0.57-0.73c-0.23-0.16-0.53-0.25-0.88-0.28c-0.36-0.03-0.82-0.04-1.39-0.04h-2.27
					c-0.15,0-0.26,0-0.33,0.01c-0.07,0.01-0.13,0.03-0.16,0.07c-0.03,0.03-0.05,0.08-0.06,0.15c0,0.06-0.01,0.15-0.01,0.26v5.23
					c0.71-0.03,1.35-0.07,1.94-0.1c0.59-0.03,1.1-0.06,1.54-0.08c0.43-0.02,0.78-0.04,1.05-0.05c0.27-0.01,0.43-0.02,0.49-0.02
					c0.24,0,0.36,0.13,0.36,0.39c0,0.16-0.01,0.33-0.03,0.5c-0.02,0.17-0.04,0.36-0.06,0.55l-5.29-0.18V30.33z"/>
				<path class="st2" d="M138.71,26.92l-1.99,5.35c-0.03,0.09-0.11,0.15-0.23,0.17c-0.15,0.02-0.33,0.03-0.53,0.04
					c-0.2,0.01-0.42,0.01-0.67,0.01c-0.14,0-0.21-0.04-0.21-0.13c0-0.03,0-0.05,0.01-0.07L141,18.14l-0.27-0.75
					c-0.02-0.07-0.03-0.12-0.03-0.14c0-0.13,0.08-0.21,0.25-0.23c0.14-0.03,0.3-0.05,0.48-0.07c0.18-0.02,0.36-0.04,0.54-0.06
					c0.17-0.02,0.33-0.03,0.48-0.04s0.25-0.01,0.32-0.01c0.17,0,0.3,0.1,0.37,0.3l5.75,14.81c0.03,0.07,0.04,0.12,0.04,0.14
					c0,0.15-0.09,0.23-0.26,0.26c-0.16,0.03-0.33,0.05-0.52,0.07c-0.19,0.02-0.38,0.04-0.57,0.05c-0.19,0.01-0.35,0.02-0.51,0.03
					c-0.15,0-0.27,0.01-0.34,0.01c-0.15,0-0.24-0.07-0.3-0.19l-2.1-5.47L138.71,26.92z M139.12,25.83h4.84l-2.45-6.4L139.12,25.83z"
					/>
				<path class="st2" d="M169.13,20.54l-4.81,11.74c-0.03,0.09-0.11,0.15-0.23,0.17c-0.15,0.02-0.33,0.03-0.52,0.04
					c-0.19,0.01-0.39,0.01-0.59,0.01c-0.14,0-0.23-0.07-0.28-0.19l-4.52-11.92l-1.48,11.88c-0.02,0.1-0.1,0.16-0.23,0.17
					c-0.16,0.02-0.35,0.03-0.57,0.05c-0.23,0.01-0.47,0.02-0.72,0.02c-0.12,0-0.18-0.05-0.18-0.14c0-0.06,0-0.1,0.01-0.13l2.52-13.7
					l-0.41-1.14c-0.02-0.05-0.03-0.09-0.03-0.13c0-0.14,0.09-0.22,0.26-0.25c0.14-0.03,0.3-0.05,0.48-0.07
					c0.19-0.02,0.37-0.04,0.54-0.06c0.18-0.02,0.34-0.03,0.48-0.04c0.15-0.01,0.25-0.01,0.32-0.01c0.09,0,0.17,0.03,0.22,0.08
					c0.05,0.05,0.1,0.13,0.14,0.22l4.62,12.17l4.74-10.84l-0.13-1.07c-0.01-0.01-0.01-0.04-0.01-0.1c0-0.15,0.08-0.24,0.25-0.27
					c0.14-0.03,0.3-0.05,0.48-0.07c0.18-0.02,0.36-0.04,0.53-0.06c0.17-0.02,0.33-0.03,0.47-0.04c0.14-0.01,0.25-0.01,0.32-0.01
					c0.21,0,0.34,0.1,0.36,0.3l1.75,14.79c0.01,0.04,0.01,0.06,0.01,0.08c0,0.02,0,0.04,0,0.06c0,0.16-0.08,0.26-0.25,0.28
					c-0.15,0.03-0.31,0.05-0.5,0.07c-0.19,0.02-0.37,0.04-0.56,0.05c-0.18,0.01-0.35,0.02-0.5,0.03c-0.15,0-0.26,0.01-0.33,0.01
					c-0.08,0-0.14-0.02-0.19-0.05c-0.05-0.03-0.08-0.08-0.09-0.15L169.13,20.54z"/>
				<path class="st2" d="M188.27,20.88c-0.09-0.47-0.23-0.88-0.42-1.22c-0.19-0.34-0.43-0.62-0.72-0.85
					c-0.28-0.22-0.6-0.39-0.96-0.5c-0.36-0.11-0.74-0.16-1.15-0.16c-0.4,0-0.79,0.05-1.16,0.15c-0.37,0.1-0.7,0.26-0.98,0.47
					c-0.28,0.21-0.51,0.49-0.68,0.83c-0.17,0.34-0.25,0.74-0.25,1.2c0,0.41,0.1,0.77,0.3,1.06c0.2,0.3,0.46,0.55,0.79,0.77
					s0.71,0.42,1.14,0.59c0.43,0.17,0.88,0.34,1.34,0.52c0.52,0.2,1.03,0.41,1.55,0.64c0.52,0.23,0.98,0.51,1.39,0.83
					c0.41,0.33,0.74,0.72,0.99,1.19c0.25,0.46,0.38,1.04,0.38,1.72c0,0.59-0.08,1.12-0.25,1.57c-0.17,0.46-0.4,0.85-0.7,1.19
					c-0.3,0.34-0.64,0.63-1.04,0.86c-0.4,0.23-0.82,0.42-1.28,0.56c-0.46,0.14-0.93,0.24-1.43,0.3c-0.49,0.06-0.98,0.09-1.46,0.09
					c-0.58,0-1.15-0.03-1.72-0.1c-0.57-0.07-1.14-0.17-1.71-0.3c-0.08-0.02-0.14-0.05-0.19-0.11c-0.05-0.06-0.08-0.11-0.08-0.17
					c-0.02-0.18-0.03-0.45-0.05-0.79c-0.02-0.35-0.03-0.7-0.05-1.06c-0.01-0.36-0.02-0.69-0.03-0.98c-0.01-0.29-0.01-0.46-0.01-0.52
					l0.64-0.07c0.06,0.52,0.2,0.96,0.41,1.34c0.21,0.38,0.48,0.69,0.8,0.94c0.32,0.25,0.69,0.43,1.11,0.54
					c0.42,0.12,0.87,0.17,1.35,0.17c0.43,0,0.85-0.05,1.25-0.15c0.4-0.1,0.76-0.26,1.08-0.48c0.31-0.22,0.57-0.5,0.75-0.85
					c0.19-0.34,0.28-0.76,0.28-1.25c0-0.4-0.1-0.75-0.3-1.03c-0.2-0.28-0.46-0.54-0.79-0.76c-0.33-0.22-0.71-0.41-1.14-0.59
					c-0.43-0.17-0.87-0.35-1.32-0.53c-0.52-0.21-1.03-0.43-1.55-0.66c-0.52-0.24-0.98-0.52-1.39-0.86
					c-0.41-0.33-0.74-0.74-0.99-1.22c-0.25-0.48-0.38-1.06-0.38-1.76c0-0.84,0.17-1.55,0.5-2.12c0.33-0.57,0.77-1.02,1.3-1.37
					c0.54-0.34,1.15-0.59,1.83-0.74c0.68-0.15,1.38-0.22,2.1-0.22c0.47,0,0.99,0.04,1.55,0.11c0.56,0.07,1.08,0.17,1.57,0.29
					c0.08,0.02,0.14,0.05,0.19,0.11c0.05,0.06,0.07,0.11,0.08,0.17c0.02,0.18,0.03,0.43,0.05,0.75c0.02,0.32,0.03,0.65,0.05,0.98
					c0.02,0.33,0.03,0.63,0.04,0.9c0.01,0.27,0.01,0.43,0.01,0.48L188.27,20.88z"/>
			</g>
		</g>
	</g>
</g>
</svg>
